<?xml version="1.0" standalone="no"?>
<!DOCTYPE svg PUBLIC "-//W3C//DTD SVG 20010904//EN"
 "http://www.w3.org/TR/2001/REC-SVG-20010904/DTD/svg10.dtd">
<svg version="1.0" xmlns="http://www.w3.org/2000/svg"
 width="820.000000pt" height="820.000000pt" viewBox="0 0 820.000000 820.000000"
 preserveAspectRatio="xMidYMid meet">
<metadata>
Created by potrace 1.14, written by Peter Selinger 2001-2017
</metadata>
<g transform="translate(0.000000,820.000000) scale(0.100000,-0.100000)"
fill="#000000" stroke="none">
<path d="M6125 7573 c-107 -7 -242 -47 -367 -108 -169 -84 -251 -154 -264
-226 -10 -57 -23 -84 -60 -118 -22 -21 -33 -39 -29 -50 5 -17 -11 -51 -56
-117 -14 -22 -30 -50 -34 -64 -4 -14 -16 -37 -27 -53 -11 -15 -21 -42 -23 -60
-4 -46 -38 -110 -145 -271 -129 -195 -153 -217 -336 -299 -300 -135 -500 -276
-809 -570 -16 -16 -95 -86 -175 -155 -80 -70 -212 -193 -295 -274 -87 -85
-234 -212 -350 -304 -168 -132 -478 -384 -495 -403 -3 -3 -41 -37 -85 -76
-232 -202 -433 -408 -629 -643 -66 -79 -86 -109 -86 -133 0 -37 -13 -62 -94
-187 -155 -237 -167 -321 -21 -147 104 124 97 121 94 40 -2 -78 -18 -157 -39
-195 -7 -14 -56 -86 -109 -160 -82 -117 -134 -174 -380 -420 -340 -339 -471
-461 -719 -664 -87 -73 -109 -104 -82 -121 6 -3 10 -10 10 -16 0 -5 -51 -57
-112 -116 -256 -245 -279 -269 -272 -289 16 -42 59 -45 136 -9 98 46 100 35
14 -60 l-64 -70 49 -3 c27 -2 49 -6 49 -9 0 -3 -16 -25 -35 -49 -19 -23 -35
-45 -35 -48 0 -16 238 102 470 232 210 117 206 110 -95 -203 -106 -110 -212
-220 -235 -245 -23 -25 -72 -76 -109 -115 -180 -189 -187 -201 -132 -229 32
-17 60 -9 175 52 44 23 83 42 87 42 4 0 7 -21 6 -47 -2 -58 -2 -58 131 -1 89
38 132 43 132 15 0 -7 -7 -30 -14 -52 -31 -87 29 -79 187 26 49 33 92 59 97
59 5 0 10 -11 12 -25 3 -23 6 -21 63 32 33 30 139 133 236 227 373 362 666
645 722 694 82 74 166 135 479 345 264 178 278 186 307 176 36 -13 37 -12 172
88 92 69 115 82 170 92 35 7 88 22 119 34 80 30 137 28 189 -6 62 -41 99 -113
115 -225 2 -18 11 -43 19 -55 46 -69 712 -697 740 -697 20 0 1 -21 -56 -59
-79 -54 -113 -99 -127 -167 -22 -104 3 -198 62 -234 28 -17 96 -35 103 -28 2
2 -10 32 -26 68 -41 87 -45 112 -22 133 16 14 32 16 101 10 93 -7 134 -26 160
-75 33 -62 74 -97 127 -109 98 -21 98 -21 119 -75 12 -28 44 -84 71 -124 l50
-73 0 -98 c1 -54 4 -101 7 -104 11 -11 48 48 64 103 9 30 17 92 17 136 1 81 1
81 -51 166 -28 47 -53 96 -54 110 -3 23 0 25 38 24 29 0 56 -11 96 -37 46 -31
64 -37 107 -37 90 0 144 -41 195 -148 50 -106 57 -117 68 -98 5 10 10 54 10
99 0 97 -23 165 -83 243 -21 28 -39 54 -39 58 0 10 76 -3 117 -19 17 -7 46
-29 65 -49 34 -37 53 -44 121 -45 27 -1 45 -9 64 -27 23 -23 25 -30 20 -92 -3
-37 -8 -85 -12 -107 l-7 -40 26 24 c39 36 56 95 59 196 l2 90 130 2 c124 2
131 1 155 -22 39 -37 88 -54 124 -44 47 14 104 11 131 -7 13 -9 32 -36 41 -60
22 -58 39 -44 38 34 -1 111 -49 164 -174 192 -30 6 -104 27 -165 45 -60 18
-132 36 -160 40 -110 15 -180 66 -260 190 -54 84 -101 133 -220 230 -165 134
-477 444 -555 551 -33 46 -43 86 -27 107 7 8 48 36 92 63 73 45 85 49 142 49
l63 0 54 68 c54 67 89 120 139 208 15 26 64 79 109 119 46 40 131 119 190 176
59 57 124 111 145 119 44 18 247 221 378 377 109 130 234 318 315 473 83 159
139 245 166 255 25 10 94 121 131 214 37 91 60 132 123 227 76 113 94 150 115
234 10 39 36 111 57 160 l40 90 -5 200 c-3 110 -8 211 -11 225 -3 14 -9 41
-12 60 -4 19 -29 118 -56 220 -28 102 -59 219 -70 260 -27 100 -26 189 2 262
37 99 188 312 278 394 44 41 162 88 710 284 206 74 252 97 252 129 0 50 -101
151 -199 201 -98 49 -159 62 -396 85 -27 3 -93 9 -145 15 -52 5 -124 12 -160
15 -140 13 -308 37 -362 51 -31 8 -108 34 -170 58 -62 24 -147 49 -188 55 -73
11 -263 18 -345 14z m-1698 -5476 c17 -10 98 -79 177 -152 6 -5 56 -50 111
-100 181 -162 209 -189 311 -291 108 -109 184 -212 184 -250 0 -72 -144 -41
-341 73 -62 36 -130 73 -149 81 -50 21 -107 16 -173 -15 l-58 -27 -73 79 c-40
44 -119 132 -175 195 l-102 115 6 55 c3 30 7 64 10 75 2 11 4 28 4 38 1 27 45
63 124 102 73 37 108 42 144 22z m277 -768 c21 -24 24 -34 16 -50 -6 -10 -17
-19 -25 -19 -17 0 -85 41 -85 52 0 8 50 48 60 48 5 0 20 -14 34 -31z"/>
</g>
</svg>
